<svg xmlns="http://www.w3.org/2000/svg" aria-hidden="true" class="svg-icon visionos-icon platform-icon icon-inline" viewBox="0 0 20 11.12"><path d="M10.01 7.85c-.39 0-.75.07-1.08.23s-.65.35-.96.57c-.32.22-.63.45-.97.68s-.7.41-1.09.57c-.39.15-.83.23-1.33.23-.72 0-1.34-.18-1.88-.55s-.95-.89-1.25-1.55c-.3-.68-.44-1.47-.44-2.38 0-1.06.21-1.9.64-2.53s1.03-1.09 1.83-1.4 1.74-.51 2.85-.6 2.33-.15 3.7-.15 2.59.05 3.7.15 2.06.3 2.85.6 1.4.77 1.83 1.4.64 1.47.64 2.53c0 .92-.15 1.71-.44 2.38-.3.68-.72 1.19-1.25 1.55-.54.37-1.16.55-1.88.55-.5 0-.94-.07-1.34-.23-.39-.15-.76-.34-1.09-.57-.34-.22-.65-.45-.97-.68s-.63-.41-.96-.57c-.36-.16-.72-.23-1.11-.23Zm0 .98c.27 0 .55.07.83.23.29.15.58.34.9.57.32.22.65.45 1.02.68.37.23.77.42 1.21.57s.93.23 1.47.23c.87 0 1.64-.24 2.33-.72a4.85 4.85 0 0 0 1.63-1.96c.4-.82.59-1.76.59-2.79s-.17-1.87-.51-2.55-.81-1.23-1.43-1.64-1.33-.73-2.16-.94S14.15.16 13.15.1 11.11 0 10 0C8.91-.02 7.86.01 6.86.08S4.95.29 4.12.5c-.83.21-1.56.52-2.16.93-.61.41-1.09.96-1.43 1.64-.35.7-.5 1.55-.5 2.57s.2 1.97.59 2.79c.4.82.94 1.48 1.63 1.96s1.47.72 2.33.72c.54 0 1.02-.07 1.46-.23.44-.15.84-.34 1.21-.57s.71-.45 1.02-.68.61-.41.9-.57c.3-.14.58-.22.84-.22Z"/></svg>